<?xml version="1.0" encoding="UTF-8" standalone="no"?>
<svg
   version="1.0"
   width="1280.000000pt"
   height="720.000000pt"
   viewBox="0 0 1280.000000 720.000000"
   preserveAspectRatio="xMidYMid meet"
   id="svg6"
   sodipodi:docname="2088921.svg"
   inkscape:version="1.3.2 (091e20e, 2023-11-25, custom)"
   xmlns:inkscape="http://www.inkscape.org/namespaces/inkscape"
   xmlns:sodipodi="http://sodipodi.sourceforge.net/DTD/sodipodi-0.dtd"
   xmlns="http://www.w3.org/2000/svg"
   xmlns:svg="http://www.w3.org/2000/svg">
  <defs
     id="defs6" />
  <sodipodi:namedview
     id="namedview6"
     pagecolor="#ffffff"
     bordercolor="#000000"
     borderopacity="0.25"
     inkscape:showpageshadow="2"
     inkscape:pageopacity="0.0"
     inkscape:pagecheckerboard="0"
     inkscape:deskcolor="#d1d1d1"
     inkscape:document-units="pt"
     inkscape:zoom="0.55429688"
     inkscape:cx="853.33333"
     inkscape:cy="480.78929"
     inkscape:window-width="1600"
     inkscape:window-height="829"
     inkscape:window-x="1432"
     inkscape:window-y="-8"
     inkscape:window-maximized="1"
     inkscape:current-layer="svg6" />
  <metadata
     id="metadata1">
Created by potrace 1.15, written by Peter Selinger 2001-2017
</metadata>
  <g
     transform="translate(0.000000,720.000000) scale(0.100000,-0.100000)"
     fill="#000000"
     stroke="none"
     id="g6">
    <path
       d="M6166 6402 c-3 -5 -28 -12 -56 -16 -113 -15 -375 -123 -485 -200 -236 -165 -397 -365 -499 -619 -102 -252 -106 -605 -11 -868 84 -234 248 -453 460 -611 84 -63 279 -167 355 -189 25 -7 50 -16 55 -19 6 -4 51 -16 100 -26 73 -15 133 -19 315 -19 236 0 296 8 445 57 76 25 245 106 310 149 241 158 435 402 522 654 44 126 53 168 65 290 12 130 1 353 -21 420 -6 17 -22 68 -37 115 -63 203 -227 442 -392 573 -138 110 -314 209 -437 247 -22 7 -49 16 -60 21 -76 31 -180 43 -397 46 -128 2 -229 0 -232 -5z"
       id="path1" />
    <path
       d="M4390 6295 c-221 -36 -416 -140 -576 -308 -148 -154 -221 -289 -265 -492 -4 -22 -8 -103 -8 -180 0 -140 4 -171 33 -276 55 -202 218 -417 409 -543 176 -115 330 -164 542 -173 149 -5 223 2 348 36 104 27 131 41 135 69 2 13 -17 69 -42 126 -25 56 -46 108 -46 114 0 7 -9 38 -20 69 -44 129 -67 342 -52 481 15 136 28 207 52 281 11 35 20 68 20 73 0 10 11 36 65 153 41 91 134 241 179 290 35 37 43 65 30 99 -3 9 -10 16 -15 16 -5 0 -32 15 -61 34 -192 122 -475 173 -728 131z"
       id="path2" />
    <path
       d="M8054 6300 c-55 -8 -88 -16 -210 -56 -45 -14 -143 -64 -211 -107 -52 -33 -58 -70 -17 -108 62 -57 197 -290 250 -433 125 -333 106 -743 -47 -1059 -36 -74 -38 -121 -6 -141 24 -15 163 -54 242 -66 65 -11 278 -11 335 0 160 29 291 80 427 167 75 46 238 211 288 288 46 72 105 193 105 215 0 9 4 20 9 26 6 5 15 43 21 84 6 41 16 98 22 127 6 28 8 73 5 100 -26 217 -48 299 -114 423 -57 106 -69 122 -167 226 -150 158 -286 234 -546 305 -49 14 -312 20 -386 9z"
       id="path3" />
    <path
       d="M4140 4049 c-163 -22 -327 -88 -448 -180 -133 -101 -213 -217 -296 -429 -21 -52 -42 -105 -46 -117 -17 -41 -98 -287 -114 -343 -8 -30 -25 -86 -37 -125 -31 -100 -67 -232 -109 -395 -6 -25 -15 -54 -20 -65 -13 -30 -20 -153 -14 -212 6 -42 14 -59 46 -93 22 -22 58 -49 81 -60 41 -20 62 -20 647 -18 l605 3 38 120 c21 66 44 136 52 155 7 19 25 73 40 120 25 81 57 172 75 215 5 11 25 63 46 115 135 347 279 525 564 698 69 41 242 115 300 127 93 20 103 64 36 153 -146 192 -359 295 -686 332 -91 10 -683 10 -760 -1z"
       id="path4" />
    <path
       d="M7785 4050 c-236 -36 -420 -130 -567 -289 -70 -77 -90 -112 -86 -149 4 -32 14 -37 173 -93 272 -95 452 -231 606 -459 71 -106 145 -243 194 -361 57 -136 77 -186 91 -229 8 -25 19 -54 24 -65 5 -11 24 -63 41 -115 18 -52 47 -135 64 -185 l31 -90 612 -3 c603 -2 613 -2 656 19 25 11 63 41 86 65 l40 44 0 106 c0 78 -5 123 -19 168 -11 33 -29 93 -40 131 -91 324 -161 533 -266 800 -105 265 -201 413 -333 512 -141 106 -312 166 -552 193 -92 10 -686 10 -755 0z"
       id="path5" />
    <path
       d="M5820 3440 c-36 -5 -83 -14 -105 -20 -93 -25 -234 -74 -285 -97 -97 -45 -225 -141 -321 -241 -82 -84 -102 -113 -155 -217 -33 -66 -75 -158 -93 -205 -18 -47 -37 -94 -42 -105 -5 -11 -17 -45 -27 -75 -11 -30 -37 -109 -59 -175 -23 -66 -55 -167 -73 -225 -18 -58 -36 -114 -41 -125 -4 -11 -15 -47 -24 -80 -9 -33 -25 -91 -36 -130 -45 -154 -125 -463 -149 -570 -16 -72 -11 -166 11 -215 26 -57 60 -93 130 -136 l57 -34 1795 0 1794 0 49 27 c61 33 90 58 118 103 34 55 49 111 43 171 -7 83 -68 327 -147 584 -11 39 -28 95 -36 125 -8 30 -19 64 -24 75 -5 11 -14 38 -20 60 -6 22 -15 49 -20 60 -5 11 -14 38 -20 60 -6 22 -15 49 -20 60 -4 11 -27 74 -49 140 -23 66 -50 140 -61 165 -10 25 -29 72 -41 105 -29 76 -141 308 -171 356 -76 118 -108 161 -162 218 -161 168 -363 263 -711 332 -64 13 -1018 20 -1105 9z"
       id="path6" />
  </g>
  <path
     style="fill:#ffffff;stroke-width:1.80409"
     d="m 428.47075,689.67975 c -6.42367,-1.57728 -15.64823,-9.84864 -18.44824,-16.54195 -4.08004,-9.75318 -2.09077,-23.41712 9.50963,-65.31976 18.62758,-67.28608 36.4167,-116.51503 49.43309,-136.79931 14.10192,-21.97594 40.45645,-39.68698 70.27625,-47.22778 13.81927,-3.4946 18.59587,-3.69646 70.1965,-2.96652 48.96893,0.69272 57.07381,1.22533 70.12537,4.60828 27.14348,7.03556 48.53036,19.69393 61.94354,36.66285 10.99275,13.90688 9.90189,17.42603 -7.24332,23.36722 -28.16262,9.75896 -56.33164,27.17703 -72.90918,45.08275 -21.07367,22.76208 -33.27935,48.08585 -56.88578,118.02389 l -14.0056,41.494 -79.19204,0.25113 c -43.55562,0.13812 -80.81572,-0.14753 -82.80022,-0.6348 z"
     id="path7"
     transform="scale(0.75)" />
  <path
     style="fill:#ffffff;stroke-width:1.80409"
     d="m 578.21001,379.63828 c -49.74709,-10.85273 -92.6742,-53.33157 -103.05466,-101.97852 -4.06827,-19.06551 -2.48025,-48.56552 3.56813,-66.28372 14.19793,-41.59162 52.73094,-76.26734 97.68244,-87.90404 17.74754,-4.59435 51.02881,-4.25599 69.7163,0.7088 20.02859,5.32107 46.64734,19.22395 46.64734,24.36373 0,1.19226 -3.68465,7.02282 -8.18813,12.95678 -11.38896,15.00663 -28.96061,51.22571 -33.24233,68.51983 -10.397,41.99428 -7.27845,81.07711 9.86138,123.58609 4.48608,11.12605 5.60828,15.80669 4.19728,17.50684 -1.05925,1.2763 -7.30855,4.04448 -13.88734,6.15147 -16.01953,5.13057 -54.89118,6.38887 -73.30041,2.37274 z"
     id="path8"
     transform="scale(0.75)" />
  <path
     style="fill:#ffffff;stroke-width:1.80409"
     d="m 807.22914,443.96709 c -34.28536,-9.23489 -64.96907,-27.54822 -87.72339,-52.35698 -31.01768,-33.81821 -45.15898,-69.80305 -45.10608,-114.77974 0.0536,-45.54556 15.31071,-82.49162 47.88936,-115.9669 25.51063,-26.21273 52.8701,-41.51838 91.35438,-51.10621 13.64881,-3.40041 18.72246,-3.71166 46.1483,-2.83101 28.32275,0.90944 32.18734,1.44855 47.80832,6.66923 58.40756,19.52037 98.60027,59.41754 118.19667,117.32771 4.8839,14.4327 5.1899,17.08575 5.2016,45.10218 0.011,25.5869 -0.5653,31.79437 -4.1009,44.20014 -9.2675,32.5188 -30.72023,65.53017 -56.78591,87.382 -14.70578,12.32841 -40.56714,26.41117 -61.87859,33.6959 -13.40507,4.58215 -16.64056,4.92855 -51.29139,5.49141 -31.92878,0.51863 -38.72356,0.13214 -49.71237,-2.82773 z"
     id="path9"
     transform="scale(0.75)" />
  <path
     style="fill:#ffffff;stroke-width:1.80409"
     d="m 1060.9404,378.76075 c -13.6072,-3.56302 -21.7861,-7.59775 -21.7861,-10.74738 0,-0.95776 2.8516,-8.63 6.3368,-17.0494 10.8125,-26.12012 14.1784,-43.34549 14.2911,-73.13451 0.1078,-28.50169 -2.6791,-45.18016 -11.1537,-66.75124 -5.7512,-14.63884 -19.5456,-39.29623 -29.194,-52.18409 -7.0434,-9.40835 -7.2055,-9.92351 -4.1774,-13.28006 4.7585,-5.27478 29.1984,-16.9805 44.0397,-21.09322 18.6502,-5.16823 56.4299,-5.17316 73.7682,-0.01 17.7516,5.28666 31.7795,11.8732 44.3039,20.80205 63.144,45.01632 75.3538,130.64071 26.6489,186.88187 -21.0463,24.30292 -44.5837,39.2019 -73.692,46.64656 -19.0997,4.88487 -50.561,4.84816 -69.3854,-0.081 z"
     id="path10"
     transform="scale(0.75)" />
  <path
     style="fill:#ffffff;stroke-width:1.80409"
     d="m 1108.5496,671.57153 c -32.5408,-93.23472 -53.7499,-131.59323 -86.5057,-156.45342 -14.3851,-10.91766 -26.67906,-17.30621 -51.89591,-26.96762 -14.87751,-5.70006 -17.58985,-7.35123 -17.58985,-10.708 0,-10.7852 23.00481,-32.79885 46.19552,-44.20519 23.55554,-11.58577 26.56854,-11.9829 90.91514,-11.9829 55.1677,0 59.5924,0.24404 74.8696,4.12937 37.7269,9.59475 61.3106,28.0571 78.2133,61.22863 14.1006,27.67249 28.6347,67.46546 47.2929,129.48344 5.5391,18.41124 7.8364,29.57147 8.4755,41.17398 l 0.8767,15.91676 -6.0902,6.39843 c -10.9994,11.55609 -9.4895,11.38046 -97.8445,11.38046 h -80.1436 z"
     id="path11"
     transform="scale(0.75)" />
  <path
     style="fill:#ffffff;stroke-width:1.80409"
     d="m 605.06354,847.47005 c -11.6824,-7.84264 -16.86314,-17.27605 -16.90137,-30.77501 -0.0633,-22.35897 36.22881,-148.41746 59.72261,-207.44281 15.35065,-38.56666 26.16092,-54.51489 49.89297,-73.60635 16.48614,-13.26242 28.2929,-19.34065 52.76931,-27.16613 l 18.89621,-6.04141 76.67371,0.0853 c 73.54572,0.0818 77.29932,0.25044 92.00846,4.13332 36.2921,9.58031 63.90546,23.89058 79.57436,41.23832 15.4486,17.10379 32.1613,47.05109 46.9952,84.2099 22.1704,55.53663 55.6433,167.77446 55.6433,186.57718 0,9.30096 -8.4487,23.08343 -17.8473,29.11447 l -8.6279,5.53651 H 853.83031 613.79749 Z"
     id="path12"
     transform="scale(0.75)" />
</svg>
